<svg width="1024" height="753" viewBox="0 0 1024 753" fill="none" xmlns="http://www.w3.org/2000/svg">
<g clip-path="url(#clip0_122_130)">
<rect width="1024" height="753" fill="#121214"/>
<g opacity="0.2" filter="url(#filter0_f_122_130)">
<ellipse cx="536.5" cy="31" rx="670.5" ry="350" fill="#35875D"/>
</g>
<path d="M57.0349 267C58.5302 267 59.6622 267.63 60.4308 268.891C61.2134 270.138 61.6047 271.953 61.6047 274.336C61.6047 276.719 61.2134 278.541 60.4308 279.802C59.6622 281.063 58.5302 281.693 57.0349 281.693C55.5536 281.693 54.4216 281.063 53.639 279.802C52.8564 278.541 52.4651 276.719 52.4651 274.336C52.4651 271.967 52.8564 270.152 53.639 268.891C54.4216 267.63 55.5536 267 57.0349 267ZM53.9534 274.336C53.9534 276.026 54.1072 277.35 54.4146 278.306L59.0683 269.099C58.5791 268.448 57.9013 268.122 57.0349 268.122C56.0706 268.122 55.316 268.635 54.771 269.66C54.2259 270.672 53.9534 272.23 53.9534 274.336ZM57.0349 280.55C58.0131 280.55 58.7748 280.044 59.3198 279.033C59.8648 278.008 60.1373 276.442 60.1373 274.336C60.1373 272.549 59.9627 271.163 59.6133 270.18L54.9596 279.469C55.4627 280.19 56.1545 280.55 57.0349 280.55Z" fill="url(#paint0_linear_122_130)" fill-opacity="0.6"/>
<path d="M58.2926 304.135H61.3741V305.236H53.3874V304.135H56.9511V292.455L53.5551 294.471L52.9682 293.536L57.1607 290.959H58.2926V304.135Z" fill="url(#paint1_linear_122_130)" fill-opacity="0.6"/>
<path d="M57.0349 314.502C58.5302 314.502 59.6622 315.133 60.4308 316.393C61.2134 317.64 61.6047 319.455 61.6047 321.838C61.6047 324.221 61.2134 326.043 60.4308 327.304C59.6622 328.565 58.5302 329.195 57.0349 329.195C55.5536 329.195 54.4216 328.565 53.639 327.304C52.8564 326.043 52.4651 324.221 52.4651 321.838C52.4651 319.469 52.8564 317.654 53.639 316.393C54.4216 315.133 55.5536 314.502 57.0349 314.502ZM53.9534 321.838C53.9534 323.529 54.1072 324.852 54.4146 325.808L59.0683 316.601C58.5791 315.95 57.9013 315.624 57.0349 315.624C56.0706 315.624 55.316 316.137 54.771 317.162C54.2259 318.174 53.9534 319.732 53.9534 321.838ZM57.0349 328.052C58.0131 328.052 58.7748 327.546 59.3198 326.535C59.8648 325.51 60.1373 323.944 60.1373 321.838C60.1373 320.051 59.9627 318.665 59.6133 317.682L54.9596 326.971C55.4627 327.692 56.1545 328.052 57.0349 328.052Z" fill="url(#paint2_linear_122_130)" fill-opacity="0.6"/>
<path d="M58.2926 351.637H61.3741V352.738H53.3874V351.637H56.9511V339.957L53.5551 341.973L52.9682 341.038L57.1607 338.461H58.2926V351.637Z" fill="url(#paint3_linear_122_130)" fill-opacity="0.6"/>
<path d="M58.2926 375.388H61.3741V376.489H53.3874V375.388H56.9511V363.708L53.5551 365.724L52.9682 364.789L57.1607 362.212H58.2926V375.388Z" fill="url(#paint4_linear_122_130)" fill-opacity="0.6"/>
<path d="M57.0349 385.755C58.5302 385.755 59.6622 386.386 60.4308 387.646C61.2134 388.893 61.6047 390.708 61.6047 393.091C61.6047 395.474 61.2134 397.296 60.4308 398.557C59.6622 399.818 58.5302 400.448 57.0349 400.448C55.5536 400.448 54.4216 399.818 53.639 398.557C52.8564 397.296 52.4651 395.474 52.4651 393.091C52.4651 390.722 52.8564 388.907 53.639 387.646C54.4216 386.386 55.5536 385.755 57.0349 385.755ZM53.9534 393.091C53.9534 394.782 54.1072 396.105 54.4146 397.061L59.0683 387.854C58.5791 387.203 57.9013 386.878 57.0349 386.878C56.0706 386.878 55.316 387.39 54.771 388.415C54.2259 389.427 53.9534 390.985 53.9534 393.091ZM57.0349 399.305C58.0131 399.305 58.7748 398.8 59.3198 397.788C59.8648 396.763 60.1373 395.197 60.1373 393.091C60.1373 391.304 59.9627 389.919 59.6133 388.935L54.9596 398.225C55.4627 398.945 56.1545 399.305 57.0349 399.305Z" fill="url(#paint5_linear_122_130)" fill-opacity="0.6"/>
<path d="M58.2926 422.89H61.3741V423.992H53.3874V422.89H56.9511V411.21L53.5551 413.226L52.9682 412.291L57.1607 409.714H58.2926V422.89Z" fill="url(#paint6_linear_122_130)" fill-opacity="0.6"/>
<path d="M57.0349 433.257C58.5302 433.257 59.6622 433.888 60.4308 435.149C61.2134 436.396 61.6047 438.211 61.6047 440.594C61.6047 442.977 61.2134 444.798 60.4308 446.059C59.6622 447.32 58.5302 447.95 57.0349 447.95C55.5536 447.95 54.4216 447.32 53.639 446.059C52.8564 444.798 52.4651 442.977 52.4651 440.594C52.4651 438.224 52.8564 436.409 53.639 435.149C54.4216 433.888 55.5536 433.257 57.0349 433.257ZM53.9534 440.594C53.9534 442.284 54.1072 443.607 54.4146 444.563L59.0683 435.356C58.5791 434.705 57.9013 434.38 57.0349 434.38C56.0706 434.38 55.316 434.892 54.771 435.918C54.2259 436.929 53.9534 438.488 53.9534 440.594ZM57.0349 446.807C58.0131 446.807 58.7748 446.302 59.3198 445.29C59.8648 444.265 60.1373 442.699 60.1373 440.594C60.1373 438.806 59.9627 437.421 59.6133 436.437L54.9596 445.727C55.4627 446.447 56.1545 446.807 57.0349 446.807Z" fill="url(#paint7_linear_122_130)" fill-opacity="0.6"/>
<path d="M57.0349 457.008C58.5302 457.008 59.6622 457.639 60.4308 458.9C61.2134 460.147 61.6047 461.962 61.6047 464.345C61.6047 466.728 61.2134 468.549 60.4308 469.81C59.6622 471.071 58.5302 471.701 57.0349 471.701C55.5536 471.701 54.4216 471.071 53.639 469.81C52.8564 468.549 52.4651 466.728 52.4651 464.345C52.4651 461.975 52.8564 460.16 53.639 458.9C54.4216 457.639 55.5536 457.008 57.0349 457.008ZM53.9534 464.345C53.9534 466.035 54.1072 467.358 54.4146 468.314L59.0683 459.107C58.5791 458.456 57.9013 458.131 57.0349 458.131C56.0706 458.131 55.316 458.643 54.771 459.669C54.2259 460.68 53.9534 462.239 53.9534 464.345ZM57.0349 470.558C58.0131 470.558 58.7748 470.053 59.3198 469.041C59.8648 468.016 60.1373 466.451 60.1373 464.345C60.1373 462.557 59.9627 461.172 59.6133 460.188L54.9596 469.478C55.4627 470.198 56.1545 470.558 57.0349 470.558Z" fill="url(#paint8_linear_122_130)" fill-opacity="0.6"/>
<path d="M58.2926 494.143H61.3741V495.245H53.3874V494.143H56.9511V482.464L53.5551 484.48L52.9682 483.544L57.1607 480.967H58.2926V494.143Z" fill="url(#paint9_linear_122_130)" fill-opacity="0.6"/>
<path d="M57.0349 504.511C58.5302 504.511 59.6622 505.141 60.4308 506.402C61.2134 507.649 61.6047 509.464 61.6047 511.847C61.6047 514.23 61.2134 516.052 60.4308 517.312C59.6622 518.573 58.5302 519.204 57.0349 519.204C55.5536 519.204 54.4216 518.573 53.639 517.312C52.8564 516.052 52.4651 514.23 52.4651 511.847C52.4651 509.478 52.8564 507.663 53.639 506.402C54.4216 505.141 55.5536 504.511 57.0349 504.511ZM53.9534 511.847C53.9534 513.537 54.1072 514.86 54.4146 515.816L59.0683 506.61C58.5791 505.958 57.9013 505.633 57.0349 505.633C56.0706 505.633 55.316 506.145 54.771 507.171C54.2259 508.182 53.9534 509.741 53.9534 511.847ZM57.0349 518.061C58.0131 518.061 58.7748 517.555 59.3198 516.543C59.8648 515.518 60.1373 513.953 60.1373 511.847C60.1373 510.059 59.9627 508.674 59.6133 507.69L54.9596 516.98C55.4627 517.7 56.1545 518.061 57.0349 518.061Z" fill="url(#paint10_linear_122_130)" fill-opacity="0.6"/>
<path d="M58.2926 541.645H61.3741V542.747H53.3874V541.645H56.9511V529.966L53.5551 531.982L52.9682 531.046L57.1607 528.469H58.2926V541.645Z" fill="url(#paint11_linear_122_130)" fill-opacity="0.6"/>
<path d="M58.2926 565.396H61.3741V566.498H53.3874V565.396H56.9511V553.717L53.5551 555.733L52.9682 554.798L57.1607 552.221H58.2926V565.396Z" fill="url(#paint12_linear_122_130)" fill-opacity="0.6"/>
<path d="M95.9651 314.502C97.4604 314.502 98.5924 315.133 99.361 316.393C100.144 317.64 100.535 319.455 100.535 321.838C100.535 324.221 100.144 326.043 99.361 327.304C98.5924 328.565 97.4604 329.195 95.9651 329.195C94.4838 329.195 93.3518 328.565 92.5692 327.304C91.7866 326.043 91.3953 324.221 91.3953 321.838C91.3953 319.469 91.7866 317.654 92.5692 316.393C93.3518 315.133 94.4838 314.502 95.9651 314.502ZM92.8836 321.838C92.8836 323.529 93.0374 324.852 93.3448 325.808L97.9985 316.601C97.5093 315.95 96.8315 315.624 95.9651 315.624C95.0008 315.624 94.2462 316.137 93.7012 317.162C93.1561 318.174 92.8836 319.732 92.8836 321.838ZM95.9651 328.052C96.9433 328.052 97.705 327.546 98.25 326.535C98.795 325.51 99.0675 323.944 99.0675 321.838C99.0675 320.051 98.8928 318.665 98.5435 317.682L93.8898 326.971C94.3929 327.692 95.0847 328.052 95.9651 328.052Z" fill="url(#paint13_linear_122_130)" fill-opacity="0.6"/>
<path d="M97.2228 351.637H100.304V352.738H92.3176V351.637H95.8812V339.957L92.4853 341.973L91.8984 341.038L96.0909 338.461H97.2228V351.637Z" fill="url(#paint14_linear_122_130)" fill-opacity="0.6"/>
<path d="M95.9651 362.004C97.4604 362.004 98.5924 362.635 99.361 363.895C100.144 365.142 100.535 366.957 100.535 369.34C100.535 371.723 100.144 373.545 99.361 374.806C98.5924 376.067 97.4604 376.697 95.9651 376.697C94.4838 376.697 93.3518 376.067 92.5692 374.806C91.7866 373.545 91.3953 371.723 91.3953 369.34C91.3953 366.971 91.7866 365.156 92.5692 363.895C93.3518 362.635 94.4838 362.004 95.9651 362.004ZM92.8836 369.34C92.8836 371.031 93.0374 372.354 93.3448 373.31L97.9985 364.103C97.5093 363.452 96.8315 363.126 95.9651 363.126C95.0008 363.126 94.2462 363.639 93.7012 364.664C93.1561 365.676 92.8836 367.234 92.8836 369.34ZM95.9651 375.554C96.9433 375.554 97.705 375.049 98.25 374.037C98.795 373.012 99.0675 371.446 99.0675 369.34C99.0675 367.553 98.8928 366.168 98.5435 365.184L93.8898 374.474C94.3929 375.194 95.0847 375.554 95.9651 375.554Z" fill="url(#paint15_linear_122_130)" fill-opacity="0.6"/>
<path d="M95.9651 385.755C97.4604 385.755 98.5924 386.386 99.361 387.646C100.144 388.893 100.535 390.708 100.535 393.091C100.535 395.474 100.144 397.296 99.361 398.557C98.5924 399.818 97.4604 400.448 95.9651 400.448C94.4838 400.448 93.3518 399.818 92.5692 398.557C91.7866 397.296 91.3953 395.474 91.3953 393.091C91.3953 390.722 91.7866 388.907 92.5692 387.646C93.3518 386.386 94.4838 385.755 95.9651 385.755ZM92.8836 393.091C92.8836 394.782 93.0374 396.105 93.3448 397.061L97.9985 387.854C97.5093 387.203 96.8315 386.878 95.9651 386.878C95.0008 386.878 94.2462 387.39 93.7012 388.415C93.1561 389.427 92.8836 390.985 92.8836 393.091ZM95.9651 399.305C96.9433 399.305 97.705 398.8 98.25 397.788C98.795 396.763 99.0675 395.197 99.0675 393.091C99.0675 391.304 98.8928 389.919 98.5435 388.935L93.8898 398.225C94.3929 398.945 95.0847 399.305 95.9651 399.305Z" fill="url(#paint16_linear_122_130)" fill-opacity="0.6"/>
<path d="M97.2228 422.89H100.304V423.992H92.3176V422.89H95.8812V411.21L92.4853 413.226L91.8984 412.291L96.0909 409.714H97.2228V422.89Z" fill="url(#paint17_linear_122_130)" fill-opacity="0.6"/>
<path d="M95.9651 433.257C97.4604 433.257 98.5924 433.888 99.361 435.149C100.144 436.396 100.535 438.211 100.535 440.594C100.535 442.977 100.144 444.798 99.361 446.059C98.5924 447.32 97.4604 447.95 95.9651 447.95C94.4838 447.95 93.3518 447.32 92.5692 446.059C91.7866 444.798 91.3953 442.977 91.3953 440.594C91.3953 438.224 91.7866 436.409 92.5692 435.149C93.3518 433.888 94.4838 433.257 95.9651 433.257ZM92.8836 440.594C92.8836 442.284 93.0374 443.607 93.3448 444.563L97.9985 435.356C97.5093 434.705 96.8315 434.38 95.9651 434.38C95.0008 434.38 94.2462 434.892 93.7012 435.918C93.1561 436.929 92.8836 438.488 92.8836 440.594ZM95.9651 446.807C96.9433 446.807 97.705 446.302 98.25 445.29C98.795 444.265 99.0675 442.699 99.0675 440.594C99.0675 438.806 98.8928 437.421 98.5435 436.437L93.8898 445.727C94.3929 446.447 95.0847 446.807 95.9651 446.807Z" fill="url(#paint18_linear_122_130)" fill-opacity="0.6"/>
<path d="M97.2228 470.392H100.304V471.494H92.3176V470.392H95.8812V458.713L92.4853 460.728L91.8984 459.793L96.0909 457.216H97.2228V470.392Z" fill="url(#paint19_linear_122_130)" fill-opacity="0.6"/>
<path d="M95.9651 480.76C97.4604 480.76 98.5924 481.39 99.361 482.651C100.144 483.898 100.535 485.713 100.535 488.096C100.535 490.479 100.144 492.301 99.361 493.561C98.5924 494.822 97.4604 495.453 95.9651 495.453C94.4838 495.453 93.3518 494.822 92.5692 493.561C91.7866 492.301 91.3953 490.479 91.3953 488.096C91.3953 485.726 91.7866 483.911 92.5692 482.651C93.3518 481.39 94.4838 480.76 95.9651 480.76ZM92.8836 488.096C92.8836 489.786 93.0374 491.109 93.3448 492.065L97.9985 482.859C97.5093 482.207 96.8315 481.882 95.9651 481.882C95.0008 481.882 94.2462 482.394 93.7012 483.42C93.1561 484.431 92.8836 485.99 92.8836 488.096ZM95.9651 494.31C96.9433 494.31 97.705 493.804 98.25 492.792C98.795 491.767 99.0675 490.202 99.0675 488.096C99.0675 486.308 98.8928 484.923 98.5435 483.939L93.8898 493.229C94.3929 493.949 95.0847 494.31 95.9651 494.31Z" fill="url(#paint20_linear_122_130)" fill-opacity="0.6"/>
<path d="M95.9651 504.511C97.4604 504.511 98.5924 505.141 99.361 506.402C100.144 507.649 100.535 509.464 100.535 511.847C100.535 514.23 100.144 516.052 99.361 517.312C98.5924 518.573 97.4604 519.204 95.9651 519.204C94.4838 519.204 93.3518 518.573 92.5692 517.312C91.7866 516.052 91.3953 514.23 91.3953 511.847C91.3953 509.478 91.7866 507.663 92.5692 506.402C93.3518 505.141 94.4838 504.511 95.9651 504.511ZM92.8836 511.847C92.8836 513.537 93.0374 514.86 93.3448 515.816L97.9985 506.61C97.5093 505.958 96.8315 505.633 95.9651 505.633C95.0008 505.633 94.2462 506.145 93.7012 507.171C93.1561 508.182 92.8836 509.741 92.8836 511.847ZM95.9651 518.061C96.9433 518.061 97.705 517.555 98.25 516.543C98.795 515.518 99.0675 513.953 99.0675 511.847C99.0675 510.059 98.8928 508.674 98.5435 507.69L93.8898 516.98C94.3929 517.7 95.0847 518.061 95.9651 518.061Z" fill="url(#paint21_linear_122_130)" fill-opacity="0.6"/>
<path d="M97.2228 541.645H100.304V542.747H92.3176V541.645H95.8812V529.966L92.4853 531.982L91.8984 531.046L96.0909 528.469H97.2228V541.645Z" fill="url(#paint22_linear_122_130)" fill-opacity="0.6"/>
<path d="M95.9651 552.013C97.4604 552.013 98.5924 552.643 99.361 553.904C100.144 555.151 100.535 556.966 100.535 559.349C100.535 561.732 100.144 563.554 99.361 564.815C98.5924 566.075 97.4604 566.706 95.9651 566.706C94.4838 566.706 93.3518 566.075 92.5692 564.815C91.7866 563.554 91.3953 561.732 91.3953 559.349C91.3953 556.98 91.7866 555.165 92.5692 553.904C93.3518 552.643 94.4838 552.013 95.9651 552.013ZM92.8836 559.349C92.8836 561.039 93.0374 562.362 93.3448 563.318L97.9985 554.112C97.5093 553.461 96.8315 553.135 95.9651 553.135C95.0008 553.135 94.2462 553.648 93.7012 554.673C93.1561 555.684 92.8836 557.243 92.8836 559.349ZM95.9651 565.563C96.9433 565.563 97.705 565.057 98.25 564.046C98.795 563.02 99.0675 561.455 99.0675 559.349C99.0675 557.562 98.8928 556.176 98.5435 555.192L93.8898 564.482C94.3929 565.202 95.0847 565.563 95.9651 565.563Z" fill="url(#paint23_linear_122_130)" fill-opacity="0.6"/>
<path d="M97.2228 589.148H100.304V590.249H92.3176V589.148H95.8812V577.468L92.4853 579.484L91.8984 578.549L96.0909 575.972H97.2228V589.148Z" fill="url(#paint24_linear_122_130)" fill-opacity="0.6"/>
<path d="M97.2228 612.899H100.304V614H92.3176V612.899H95.8812V601.219L92.4853 603.235L91.8984 602.3L96.0909 599.723H97.2228V612.899Z" fill="url(#paint25_linear_122_130)" fill-opacity="0.6"/>
<path d="M37.5698 338.253C39.0651 338.253 40.1971 338.884 40.9657 340.144C41.7483 341.391 42.1396 343.206 42.1396 345.589C42.1396 347.972 41.7483 349.794 40.9657 351.055C40.1971 352.316 39.0651 352.946 37.5698 352.946C36.0885 352.946 34.9565 352.316 34.1739 351.055C33.3913 349.794 33 347.972 33 345.589C33 343.22 33.3913 341.405 34.1739 340.144C34.9565 338.884 36.0885 338.253 37.5698 338.253ZM34.4883 345.589C34.4883 347.28 34.6421 348.603 34.9495 349.559L39.6032 340.352C39.114 339.701 38.4363 339.375 37.5698 339.375C36.6055 339.375 35.8509 339.888 35.3059 340.913C34.7608 341.925 34.4883 343.483 34.4883 345.589ZM37.5698 351.803C38.5481 351.803 39.3097 351.297 39.8547 350.286C40.3997 349.261 40.6722 347.695 40.6722 345.589C40.6722 343.802 40.4976 342.417 40.1482 341.433L35.4945 350.722C35.9976 351.443 36.6894 351.803 37.5698 351.803Z" fill="url(#paint26_linear_122_130)" fill-opacity="0.6"/>
<path d="M37.5698 362.004C39.0651 362.004 40.1971 362.635 40.9657 363.895C41.7483 365.142 42.1396 366.957 42.1396 369.34C42.1396 371.723 41.7483 373.545 40.9657 374.806C40.1971 376.067 39.0651 376.697 37.5698 376.697C36.0885 376.697 34.9565 376.067 34.1739 374.806C33.3913 373.545 33 371.723 33 369.34C33 366.971 33.3913 365.156 34.1739 363.895C34.9565 362.635 36.0885 362.004 37.5698 362.004ZM34.4883 369.34C34.4883 371.031 34.6421 372.354 34.9495 373.31L39.6032 364.103C39.114 363.452 38.4363 363.126 37.5698 363.126C36.6055 363.126 35.8509 363.639 35.3059 364.664C34.7608 365.676 34.4883 367.234 34.4883 369.34ZM37.5698 375.554C38.5481 375.554 39.3097 375.049 39.8547 374.037C40.3997 373.012 40.6722 371.446 40.6722 369.34C40.6722 367.553 40.4976 366.168 40.1482 365.184L35.4945 374.474C35.9976 375.194 36.6894 375.554 37.5698 375.554Z" fill="url(#paint27_linear_122_130)" fill-opacity="0.6"/>
<path d="M38.8276 399.139H41.909V400.24H33.9223V399.139H37.486V387.459L34.09 389.475L33.5031 388.54L37.6956 385.963H38.8276V399.139Z" fill="url(#paint28_linear_122_130)" fill-opacity="0.6"/>
<path d="M37.5698 409.506C39.0651 409.506 40.1971 410.137 40.9657 411.398C41.7483 412.644 42.1396 414.459 42.1396 416.842C42.1396 419.225 41.7483 421.047 40.9657 422.308C40.1971 423.569 39.0651 424.199 37.5698 424.199C36.0885 424.199 34.9565 423.569 34.1739 422.308C33.3913 421.047 33 419.225 33 416.842C33 414.473 33.3913 412.658 34.1739 411.398C34.9565 410.137 36.0885 409.506 37.5698 409.506ZM34.4883 416.842C34.4883 418.533 34.6421 419.856 34.9495 420.812L39.6032 411.605C39.114 410.954 38.4363 410.629 37.5698 410.629C36.6055 410.629 35.8509 411.141 35.3059 412.166C34.7608 413.178 34.4883 414.737 34.4883 416.842ZM37.5698 423.056C38.5481 423.056 39.3097 422.551 39.8547 421.539C40.3997 420.514 40.6722 418.948 40.6722 416.842C40.6722 415.055 40.4976 413.67 40.1482 412.686L35.4945 421.976C35.9976 422.696 36.6894 423.056 37.5698 423.056Z" fill="url(#paint29_linear_122_130)" fill-opacity="0.6"/>
<path d="M38.8276 446.641H41.909V447.743H33.9223V446.641H37.486V434.962L34.09 436.977L33.5031 436.042L37.6956 433.465H38.8276V446.641Z" fill="url(#paint30_linear_122_130)" fill-opacity="0.6"/>
<path d="M38.8276 470.392H41.909V471.494H33.9223V470.392H37.486V458.713L34.09 460.728L33.5031 459.793L37.6956 457.216H38.8276V470.392Z" fill="url(#paint31_linear_122_130)" fill-opacity="0.6"/>
<path d="M77.7577 304.135H80.8392V305.236H72.8525V304.135H76.4162V292.455L73.0202 294.471L72.4333 293.536L76.6258 290.959H77.7577V304.135Z" fill="url(#paint32_linear_122_130)" fill-opacity="0.6"/>
<path d="M76.5 314.502C77.9953 314.502 79.1273 315.133 79.8959 316.393C80.6785 317.64 81.0698 319.455 81.0698 321.838C81.0698 324.221 80.6785 326.043 79.8959 327.304C79.1273 328.565 77.9953 329.195 76.5 329.195C75.0187 329.195 73.8867 328.565 73.1041 327.304C72.3215 326.043 71.9302 324.221 71.9302 321.838C71.9302 319.469 72.3215 317.654 73.1041 316.393C73.8867 315.133 75.0187 314.502 76.5 314.502ZM73.4185 321.838C73.4185 323.529 73.5723 324.852 73.8797 325.808L78.5334 316.601C78.0442 315.95 77.3664 315.624 76.5 315.624C75.5357 315.624 74.7811 316.137 74.2361 317.162C73.691 318.174 73.4185 319.732 73.4185 321.838ZM76.5 328.052C77.4782 328.052 78.2399 327.546 78.7849 326.535C79.3299 325.51 79.6024 323.944 79.6024 321.838C79.6024 320.051 79.4277 318.665 79.0784 317.682L74.4247 326.971C74.9278 327.692 75.6196 328.052 76.5 328.052Z" fill="url(#paint33_linear_122_130)" fill-opacity="0.6"/>
<path d="M77.7577 351.637H80.8392V352.738H72.8525V351.637H76.4162V339.957L73.0202 341.973L72.4333 341.038L76.6258 338.461H77.7577V351.637Z" fill="url(#paint34_linear_122_130)" fill-opacity="0.6"/>
<path d="M77.7577 375.388H80.8392V376.489H72.8525V375.388H76.4162V363.708L73.0202 365.724L72.4333 364.789L76.6258 362.212H77.7577V375.388Z" fill="url(#paint35_linear_122_130)" fill-opacity="0.6"/>
<path d="M76.5 385.755C77.9953 385.755 79.1273 386.386 79.8959 387.646C80.6785 388.893 81.0698 390.708 81.0698 393.091C81.0698 395.474 80.6785 397.296 79.8959 398.557C79.1273 399.818 77.9953 400.448 76.5 400.448C75.0187 400.448 73.8867 399.818 73.1041 398.557C72.3215 397.296 71.9302 395.474 71.9302 393.091C71.9302 390.722 72.3215 388.907 73.1041 387.646C73.8867 386.386 75.0187 385.755 76.5 385.755ZM73.4185 393.091C73.4185 394.782 73.5723 396.105 73.8797 397.061L78.5334 387.854C78.0442 387.203 77.3664 386.878 76.5 386.878C75.5357 386.878 74.7811 387.39 74.2361 388.415C73.691 389.427 73.4185 390.985 73.4185 393.091ZM76.5 399.305C77.4782 399.305 78.2399 398.8 78.7849 397.788C79.3299 396.763 79.6024 395.197 79.6024 393.091C79.6024 391.304 79.4277 389.919 79.0784 388.935L74.4247 398.225C74.9278 398.945 75.6196 399.305 76.5 399.305Z" fill="url(#paint36_linear_122_130)" fill-opacity="0.6"/>
<path d="M77.7577 422.89H80.8392V423.992H72.8525V422.89H76.4162V411.21L73.0202 413.226L72.4333 412.291L76.6258 409.714H77.7577V422.89Z" fill="url(#paint37_linear_122_130)" fill-opacity="0.6"/>
<path d="M77.7577 446.641H80.8392V447.743H72.8525V446.641H76.4162V434.962L73.0202 436.977L72.4333 436.042L76.6258 433.465H77.7577V446.641Z" fill="url(#paint38_linear_122_130)" fill-opacity="0.6"/>
<path d="M76.5 457.008C77.9953 457.008 79.1273 457.639 79.8959 458.9C80.6785 460.147 81.0698 461.962 81.0698 464.345C81.0698 466.728 80.6785 468.549 79.8959 469.81C79.1273 471.071 77.9953 471.701 76.5 471.701C75.0187 471.701 73.8867 471.071 73.1041 469.81C72.3215 468.549 71.9302 466.728 71.9302 464.345C71.9302 461.975 72.3215 460.16 73.1041 458.9C73.8867 457.639 75.0187 457.008 76.5 457.008ZM73.4185 464.345C73.4185 466.035 73.5723 467.358 73.8797 468.314L78.5334 459.107C78.0442 458.456 77.3664 458.131 76.5 458.131C75.5357 458.131 74.7811 458.643 74.2361 459.669C73.691 460.68 73.4185 462.239 73.4185 464.345ZM76.5 470.558C77.4782 470.558 78.2399 470.053 78.7849 469.041C79.3299 468.016 79.6024 466.451 79.6024 464.345C79.6024 462.557 79.4277 461.172 79.0784 460.188L74.4247 469.478C74.9278 470.198 75.6196 470.558 76.5 470.558Z" fill="url(#paint39_linear_122_130)" fill-opacity="0.6"/>
<path d="M77.7577 494.143H80.8392V495.245H72.8525V494.143H76.4162V482.464L73.0202 484.48L72.4333 483.544L76.6258 480.967H77.7577V494.143Z" fill="url(#paint40_linear_122_130)" fill-opacity="0.6"/>
<path d="M76.5 504.511C77.9953 504.511 79.1273 505.141 79.8959 506.402C80.6785 507.649 81.0698 509.464 81.0698 511.847C81.0698 514.23 80.6785 516.052 79.8959 517.312C79.1273 518.573 77.9953 519.204 76.5 519.204C75.0187 519.204 73.8867 518.573 73.1041 517.312C72.3215 516.052 71.9302 514.23 71.9302 511.847C71.9302 509.478 72.3215 507.663 73.1041 506.402C73.8867 505.141 75.0187 504.511 76.5 504.511ZM73.4185 511.847C73.4185 513.537 73.5723 514.86 73.8797 515.816L78.5334 506.61C78.0442 505.958 77.3664 505.633 76.5 505.633C75.5357 505.633 74.7811 506.145 74.2361 507.171C73.691 508.182 73.4185 509.741 73.4185 511.847ZM76.5 518.061C77.4782 518.061 78.2399 517.555 78.7849 516.543C79.3299 515.518 79.6024 513.953 79.6024 511.847C79.6024 510.059 79.4277 508.674 79.0784 507.69L74.4247 516.98C74.9278 517.7 75.6196 518.061 76.5 518.061Z" fill="url(#paint41_linear_122_130)" fill-opacity="0.6"/>
<path d="M115.43 290.751C116.926 290.751 118.057 291.381 118.826 292.642C119.609 293.889 120 295.704 120 298.087C120 300.47 119.609 302.292 118.826 303.553C118.057 304.814 116.926 305.444 115.43 305.444C113.949 305.444 112.817 304.814 112.034 303.553C111.252 302.292 110.86 300.47 110.86 298.087C110.86 295.718 111.252 293.903 112.034 292.642C112.817 291.381 113.949 290.751 115.43 290.751ZM112.349 298.087C112.349 299.777 112.502 301.101 112.81 302.057L117.464 292.85C116.974 292.199 116.297 291.873 115.43 291.873C114.466 291.873 113.711 292.386 113.166 293.411C112.621 294.423 112.349 295.981 112.349 298.087ZM115.43 304.301C116.408 304.301 117.17 303.795 117.715 302.784C118.26 301.759 118.533 300.193 118.533 298.087C118.533 296.3 118.358 294.914 118.009 293.931L113.355 303.22C113.858 303.941 114.55 304.301 115.43 304.301Z" fill="url(#paint42_linear_122_130)" fill-opacity="0.6"/>
<path d="M116.688 327.886H119.769V328.987H111.783V327.886H115.346V316.206L111.95 318.222L111.363 317.287L115.556 314.71H116.688V327.886Z" fill="url(#paint43_linear_122_130)" fill-opacity="0.6"/>
<path d="M116.688 351.637H119.769V352.738H111.783V351.637H115.346V339.957L111.95 341.973L111.363 341.038L115.556 338.461H116.688V351.637Z" fill="url(#paint44_linear_122_130)" fill-opacity="0.6"/>
<path d="M115.43 362.004C116.926 362.004 118.057 362.635 118.826 363.895C119.609 365.142 120 366.957 120 369.34C120 371.723 119.609 373.545 118.826 374.806C118.057 376.067 116.926 376.697 115.43 376.697C113.949 376.697 112.817 376.067 112.034 374.806C111.252 373.545 110.86 371.723 110.86 369.34C110.86 366.971 111.252 365.156 112.034 363.895C112.817 362.635 113.949 362.004 115.43 362.004ZM112.349 369.34C112.349 371.031 112.502 372.354 112.81 373.31L117.464 364.103C116.974 363.452 116.297 363.126 115.43 363.126C114.466 363.126 113.711 363.639 113.166 364.664C112.621 365.676 112.349 367.234 112.349 369.34ZM115.43 375.554C116.408 375.554 117.17 375.049 117.715 374.037C118.26 373.012 118.533 371.446 118.533 369.34C118.533 367.553 118.358 366.168 118.009 365.184L113.355 374.474C113.858 375.194 114.55 375.554 115.43 375.554Z" fill="url(#paint45_linear_122_130)" fill-opacity="0.6"/>
<path d="M115.43 385.755C116.926 385.755 118.057 386.386 118.826 387.646C119.609 388.893 120 390.708 120 393.091C120 395.474 119.609 397.296 118.826 398.557C118.057 399.818 116.926 400.448 115.43 400.448C113.949 400.448 112.817 399.818 112.034 398.557C111.252 397.296 110.86 395.474 110.86 393.091C110.86 390.722 111.252 388.907 112.034 387.646C112.817 386.386 113.949 385.755 115.43 385.755ZM112.349 393.091C112.349 394.782 112.502 396.105 112.81 397.061L117.464 387.854C116.974 387.203 116.297 386.878 115.43 386.878C114.466 386.878 113.711 387.39 113.166 388.415C112.621 389.427 112.349 390.985 112.349 393.091ZM115.43 399.305C116.408 399.305 117.17 398.8 117.715 397.788C118.26 396.763 118.533 395.197 118.533 393.091C118.533 391.304 118.358 389.919 118.009 388.935L113.355 398.225C113.858 398.945 114.55 399.305 115.43 399.305Z" fill="url(#paint46_linear_122_130)" fill-opacity="0.6"/>
<g opacity="0.6">
<path d="M943.93 -33C945.356 -33 946.436 -32.395 947.17 -31.1851C947.916 -29.9885 948.29 -28.2468 948.29 -25.9599C948.29 -23.673 947.916 -21.9246 947.17 -20.7147C946.436 -19.5048 945.356 -18.8998 943.93 -18.8998C942.517 -18.8998 941.437 -19.5048 940.69 -20.7147C939.943 -21.9246 939.57 -23.673 939.57 -25.9599C939.57 -28.2335 939.943 -29.9752 940.69 -31.1851C941.437 -32.395 942.517 -33 943.93 -33ZM940.99 -25.9599C940.99 -24.3378 941.137 -23.068 941.43 -22.1506L945.87 -30.9857C945.403 -31.6106 944.756 -31.923 943.93 -31.923C943.01 -31.923 942.29 -31.4311 941.77 -30.4472C941.25 -29.4766 940.99 -27.9808 940.99 -25.9599ZM943.93 -19.9967C944.863 -19.9967 945.59 -20.482 946.11 -21.4526C946.63 -22.4365 946.89 -23.9389 946.89 -25.9599C946.89 -27.675 946.723 -29.0046 946.39 -29.9486L941.95 -21.0338C942.43 -20.3424 943.09 -19.9967 943.93 -19.9967Z" fill="url(#paint47_linear_122_130)"/>
<path d="M945.13 2.63655H948.07V3.69356H940.45V2.63655H943.85V-8.57181L940.61 -6.63727L940.05 -7.53474L944.05 -10.0078H945.13V2.63655Z" fill="url(#paint48_linear_122_130)"/>
<path d="M943.93 12.5856C945.356 12.5856 946.436 13.1906 947.17 14.4005C947.916 15.5971 948.29 17.3389 948.29 19.6257C948.29 21.9126 947.916 23.661 947.17 24.8709C946.436 26.0808 945.356 26.6858 943.93 26.6858C942.517 26.6858 941.437 26.0808 940.69 24.8709C939.943 23.661 939.57 21.9126 939.57 19.6257C939.57 17.3522 939.943 15.6104 940.69 14.4005C941.437 13.1906 942.517 12.5856 943.93 12.5856ZM940.99 19.6257C940.99 21.2478 941.137 22.5176 941.43 23.435L945.87 14.5999C945.403 13.975 944.756 13.6626 943.93 13.6626C943.01 13.6626 942.29 14.1545 941.77 15.1384C941.25 16.109 940.99 17.6048 940.99 19.6257ZM943.93 25.5889C944.863 25.5889 945.59 25.1036 946.11 24.133C946.63 23.1491 946.89 21.6467 946.89 19.6257C946.89 17.9106 946.723 16.581 946.39 15.637L941.95 24.5518C942.43 25.2432 943.09 25.5889 943.93 25.5889Z" fill="url(#paint49_linear_122_130)"/>
<path d="M945.13 48.2221H948.07V49.2792H940.45V48.2221H943.85V37.0138L940.61 38.9483L940.05 38.0509L944.05 35.5778H945.13V48.2221Z" fill="url(#paint50_linear_122_130)"/>
<path d="M945.13 71.015H948.07V72.072H940.45V71.015H943.85V59.8066L940.61 61.7411L940.05 60.8437L944.05 58.3706H945.13V71.015Z" fill="url(#paint51_linear_122_130)"/>
<path d="M943.93 80.964C945.356 80.964 946.436 81.569 947.17 82.7789C947.916 83.9755 948.29 85.7173 948.29 88.0041C948.29 90.291 947.916 92.0394 947.17 93.2493C946.436 94.4593 945.356 95.0642 943.93 95.0642C942.517 95.0642 941.437 94.4593 940.69 93.2493C939.943 92.0394 939.57 90.291 939.57 88.0041C939.57 85.7306 939.943 83.9888 940.69 82.7789C941.437 81.569 942.517 80.964 943.93 80.964ZM940.99 88.0041C940.99 89.6262 941.137 90.896 941.43 91.8134L945.87 82.9783C945.403 82.3534 944.756 82.041 943.93 82.041C943.01 82.041 942.29 82.5329 941.77 83.5168C941.25 84.4874 940.99 85.9832 940.99 88.0041ZM943.93 93.9673C944.863 93.9673 945.59 93.482 946.11 92.5114C946.63 91.5275 946.89 90.0251 946.89 88.0041C946.89 86.289 946.723 84.9594 946.39 84.0154L941.95 92.9302C942.43 93.6216 943.09 93.9673 943.93 93.9673Z" fill="url(#paint52_linear_122_130)"/>
<path d="M945.13 116.601H948.07V117.658H940.45V116.601H943.85V105.392L940.61 107.327L940.05 106.429L944.05 103.956H945.13V116.601Z" fill="url(#paint53_linear_122_130)"/>
<path d="M943.93 126.55C945.356 126.55 946.436 127.155 947.17 128.365C947.916 129.561 948.29 131.303 948.29 133.59C948.29 135.877 947.916 137.625 947.17 138.835C946.436 140.045 945.356 140.65 943.93 140.65C942.517 140.65 941.437 140.045 940.69 138.835C939.943 137.625 939.57 135.877 939.57 133.59C939.57 131.316 939.943 129.574 940.69 128.365C941.437 127.155 942.517 126.55 943.93 126.55ZM940.99 133.59C940.99 135.212 941.137 136.482 941.43 137.399L945.87 128.564C945.403 127.939 944.756 127.627 943.93 127.627C943.01 127.627 942.29 128.119 941.77 129.102C941.25 130.073 940.99 131.569 940.99 133.59ZM943.93 139.553C944.863 139.553 945.59 139.068 946.11 138.097C946.63 137.113 946.89 135.611 946.89 133.59C946.89 131.875 946.723 130.545 946.39 129.601L941.95 138.516C942.43 139.207 943.09 139.553 943.93 139.553Z" fill="url(#paint54_linear_122_130)"/>
<path d="M943.93 149.342C945.356 149.342 946.436 149.947 947.17 151.157C947.916 152.354 948.29 154.096 948.29 156.383C948.29 158.669 947.916 160.418 947.17 161.628C946.436 162.838 945.356 163.443 943.93 163.443C942.517 163.443 941.437 162.838 940.69 161.628C939.943 160.418 939.57 158.669 939.57 156.383C939.57 154.109 939.943 152.367 940.69 151.157C941.437 149.947 942.517 149.342 943.93 149.342ZM940.99 156.383C940.99 158.005 941.137 159.274 941.43 160.192L945.87 151.357C945.403 150.732 944.756 150.419 943.93 150.419C943.01 150.419 942.29 150.911 941.77 151.895C941.25 152.866 940.99 154.362 940.99 156.383ZM943.93 162.346C944.863 162.346 945.59 161.86 946.11 160.89C946.63 159.906 946.89 158.404 946.89 156.383C946.89 154.667 946.723 153.338 946.39 152.394L941.95 161.309C942.43 162 943.09 162.346 943.93 162.346Z" fill="url(#paint55_linear_122_130)"/>
<path d="M945.13 184.979H948.07V186.036H940.45V184.979H943.85V173.771L940.61 175.705L940.05 174.808L944.05 172.335H945.13V184.979Z" fill="url(#paint56_linear_122_130)"/>
<path d="M943.93 194.928C945.356 194.928 946.436 195.533 947.17 196.743C947.916 197.94 948.29 199.681 948.29 201.968C948.29 204.255 947.916 206.003 947.17 207.213C946.436 208.423 945.356 209.028 943.93 209.028C942.517 209.028 941.437 208.423 940.69 207.213C939.943 206.003 939.57 204.255 939.57 201.968C939.57 199.695 939.943 197.953 940.69 196.743C941.437 195.533 942.517 194.928 943.93 194.928ZM940.99 201.968C940.99 203.59 941.137 204.86 941.43 205.777L945.87 196.942C945.403 196.317 944.756 196.005 943.93 196.005C943.01 196.005 942.29 196.497 941.77 197.481C941.25 198.451 940.99 199.947 940.99 201.968ZM943.93 207.931C944.863 207.931 945.59 207.446 946.11 206.475C946.63 205.492 946.89 203.989 946.89 201.968C946.89 200.253 946.723 198.923 946.39 197.979L941.95 206.894C942.43 207.586 943.09 207.931 943.93 207.931Z" fill="url(#paint57_linear_122_130)"/>
<path d="M945.13 230.565H948.07V231.622H940.45V230.565H943.85V219.356L940.61 221.291L940.05 220.393L944.05 217.92H945.13V230.565Z" fill="url(#paint58_linear_122_130)"/>
<path d="M945.13 253.357H948.07V254.414H940.45V253.357H943.85V242.149L940.61 244.084L940.05 243.186L944.05 240.713H945.13V253.357Z" fill="url(#paint59_linear_122_130)"/>
<path d="M981.07 12.5856C982.497 12.5856 983.577 13.1906 984.31 14.4005C985.057 15.5971 985.43 17.3389 985.43 19.6257C985.43 21.9126 985.057 23.661 984.31 24.8709C983.577 26.0808 982.497 26.6858 981.07 26.6858C979.657 26.6858 978.577 26.0808 977.83 24.8709C977.084 23.661 976.71 21.9126 976.71 19.6257C976.71 17.3522 977.084 15.6104 977.83 14.4005C978.577 13.1906 979.657 12.5856 981.07 12.5856ZM978.13 19.6257C978.13 21.2478 978.277 22.5176 978.57 23.435L983.01 14.5999C982.543 13.975 981.897 13.6626 981.07 13.6626C980.15 13.6626 979.43 14.1545 978.91 15.1384C978.39 16.109 978.13 17.6048 978.13 19.6257ZM981.07 25.5889C982.003 25.5889 982.73 25.1036 983.25 24.133C983.77 23.1491 984.03 21.6467 984.03 19.6257C984.03 17.9106 983.863 16.581 983.53 15.637L979.09 24.5518C979.57 25.2432 980.23 25.5889 981.07 25.5889Z" fill="url(#paint60_linear_122_130)"/>
<path d="M982.27 48.2221H985.21V49.2792H977.59V48.2221H980.99V37.0138L977.75 38.9483L977.19 38.0509L981.19 35.5778H982.27V48.2221Z" fill="url(#paint61_linear_122_130)"/>
<path d="M981.07 58.1712C982.497 58.1712 983.577 58.7762 984.31 59.9861C985.057 61.1827 985.43 62.9245 985.43 65.2113C985.43 67.4982 985.057 69.2466 984.31 70.4565C983.577 71.6664 982.497 72.2714 981.07 72.2714C979.657 72.2714 978.577 71.6664 977.83 70.4565C977.084 69.2466 976.71 67.4982 976.71 65.2113C976.71 62.9378 977.084 61.196 977.83 59.9861C978.577 58.7762 979.657 58.1712 981.07 58.1712ZM978.13 65.2113C978.13 66.8334 978.277 68.1032 978.57 69.0206L983.01 60.1855C982.543 59.5606 981.897 59.2482 981.07 59.2482C980.15 59.2482 979.43 59.7401 978.91 60.724C978.39 61.6946 978.13 63.1904 978.13 65.2113ZM981.07 71.1745C982.003 71.1745 982.73 70.6892 983.25 69.7186C983.77 68.7347 984.03 67.2323 984.03 65.2113C984.03 63.4962 983.863 62.1666 983.53 61.2226L979.09 70.1374C979.57 70.8288 980.23 71.1745 981.07 71.1745Z" fill="url(#paint62_linear_122_130)"/>
<path d="M981.07 80.964C982.497 80.964 983.577 81.569 984.31 82.7789C985.057 83.9755 985.43 85.7173 985.43 88.0041C985.43 90.291 985.057 92.0394 984.31 93.2493C983.577 94.4593 982.497 95.0642 981.07 95.0642C979.657 95.0642 978.577 94.4593 977.83 93.2493C977.084 92.0394 976.71 90.291 976.71 88.0041C976.71 85.7306 977.084 83.9888 977.83 82.7789C978.577 81.569 979.657 80.964 981.07 80.964ZM978.13 88.0041C978.13 89.6262 978.277 90.896 978.57 91.8134L983.01 82.9783C982.543 82.3534 981.897 82.041 981.07 82.041C980.15 82.041 979.43 82.5329 978.91 83.5168C978.39 84.4874 978.13 85.9832 978.13 88.0041ZM981.07 93.9673C982.003 93.9673 982.73 93.482 983.25 92.5114C983.77 91.5275 984.03 90.0251 984.03 88.0041C984.03 86.289 983.863 84.9594 983.53 84.0154L979.09 92.9302C979.57 93.6216 980.23 93.9673 981.07 93.9673Z" fill="url(#paint63_linear_122_130)"/>
<path d="M982.27 116.601H985.21V117.658H977.59V116.601H980.99V105.392L977.75 107.327L977.19 106.429L981.19 103.956H982.27V116.601Z" fill="url(#paint64_linear_122_130)"/>
<path d="M981.07 126.55C982.497 126.55 983.577 127.155 984.31 128.365C985.057 129.561 985.43 131.303 985.43 133.59C985.43 135.877 985.057 137.625 984.31 138.835C983.577 140.045 982.497 140.65 981.07 140.65C979.657 140.65 978.577 140.045 977.83 138.835C977.084 137.625 976.71 135.877 976.71 133.59C976.71 131.316 977.084 129.574 977.83 128.365C978.577 127.155 979.657 126.55 981.07 126.55ZM978.13 133.59C978.13 135.212 978.277 136.482 978.57 137.399L983.01 128.564C982.543 127.939 981.897 127.627 981.07 127.627C980.15 127.627 979.43 128.119 978.91 129.102C978.39 130.073 978.13 131.569 978.13 133.59ZM981.07 139.553C982.003 139.553 982.73 139.068 983.25 138.097C983.77 137.113 984.03 135.611 984.03 133.59C984.03 131.875 983.863 130.545 983.53 129.601L979.09 138.516C979.57 139.207 980.23 139.553 981.07 139.553Z" fill="url(#paint65_linear_122_130)"/>
<path d="M982.27 162.186H985.21V163.243H977.59V162.186H980.99V150.978L977.75 152.912L977.19 152.015L981.19 149.542H982.27V162.186Z" fill="url(#paint66_linear_122_130)"/>
<path d="M981.07 172.135C982.497 172.135 983.577 172.74 984.31 173.95C985.057 175.147 985.43 176.888 985.43 179.175C985.43 181.462 985.057 183.211 984.31 184.421C983.577 185.63 982.497 186.235 981.07 186.235C979.657 186.235 978.577 185.63 977.83 184.421C977.084 183.211 976.71 181.462 976.71 179.175C976.71 176.902 977.084 175.16 977.83 173.95C978.577 172.74 979.657 172.135 981.07 172.135ZM978.13 179.175C978.13 180.797 978.277 182.067 978.57 182.985L983.01 174.15C982.543 173.525 981.897 173.212 981.07 173.212C980.15 173.212 979.43 173.704 978.91 174.688C978.39 175.659 978.13 177.154 978.13 179.175ZM981.07 185.139C982.003 185.139 982.73 184.653 983.25 183.683C983.77 182.699 984.03 181.196 984.03 179.175C984.03 177.46 983.863 176.131 983.53 175.187L979.09 184.101C979.57 184.793 980.23 185.139 981.07 185.139Z" fill="url(#paint67_linear_122_130)"/>
<path d="M981.07 194.928C982.497 194.928 983.577 195.533 984.31 196.743C985.057 197.94 985.43 199.681 985.43 201.968C985.43 204.255 985.057 206.003 984.31 207.213C983.577 208.423 982.497 209.028 981.07 209.028C979.657 209.028 978.577 208.423 977.83 207.213C977.084 206.003 976.71 204.255 976.71 201.968C976.71 199.695 977.084 197.953 977.83 196.743C978.577 195.533 979.657 194.928 981.07 194.928ZM978.13 201.968C978.13 203.59 978.277 204.86 978.57 205.777L983.01 196.942C982.543 196.317 981.897 196.005 981.07 196.005C980.15 196.005 979.43 196.497 978.91 197.481C978.39 198.451 978.13 199.947 978.13 201.968ZM981.07 207.931C982.003 207.931 982.73 207.446 983.25 206.475C983.77 205.492 984.03 203.989 984.03 201.968C984.03 200.253 983.863 198.923 983.53 197.979L979.09 206.894C979.57 207.586 980.23 207.931 981.07 207.931Z" fill="url(#paint68_linear_122_130)"/>
<path d="M982.27 230.565H985.21V231.622H977.59V230.565H980.99V219.356L977.75 221.291L977.19 220.393L981.19 217.92H982.27V230.565Z" fill="url(#paint69_linear_122_130)"/>
<path d="M981.07 240.514C982.497 240.514 983.577 241.119 984.31 242.329C985.057 243.525 985.43 245.267 985.43 247.554C985.43 249.841 985.057 251.589 984.31 252.799C983.577 254.009 982.497 254.614 981.07 254.614C979.657 254.614 978.577 254.009 977.83 252.799C977.084 251.589 976.71 249.841 976.71 247.554C976.71 245.28 977.084 243.538 977.83 242.329C978.577 241.119 979.657 240.514 981.07 240.514ZM978.13 247.554C978.13 249.176 978.277 250.446 978.57 251.363L983.01 242.528C982.543 241.903 981.897 241.591 981.07 241.591C980.15 241.591 979.43 242.083 978.91 243.066C978.39 244.037 978.13 245.533 978.13 247.554ZM981.07 253.517C982.003 253.517 982.73 253.032 983.25 252.061C983.77 251.077 984.03 249.575 984.03 247.554C984.03 245.839 983.863 244.509 983.53 243.565L979.09 252.48C979.57 253.171 980.23 253.517 981.07 253.517Z" fill="url(#paint70_linear_122_130)"/>
<path d="M982.27 276.15H985.21V277.207H977.59V276.15H980.99V264.942L977.75 266.876L977.19 265.979L981.19 263.506H982.27V276.15Z" fill="url(#paint71_linear_122_130)"/>
<path d="M982.27 298.943H985.21V300H977.59V298.943H980.99V287.735L977.75 289.669L977.19 288.772L981.19 286.299H982.27V298.943Z" fill="url(#paint72_linear_122_130)"/>
<path d="M925.36 35.3784C926.786 35.3784 927.866 35.9834 928.599 37.1933C929.346 38.3899 929.719 40.1317 929.719 42.4185C929.719 44.7054 929.346 46.4538 928.599 47.6637C927.866 48.8736 926.786 49.4786 925.36 49.4786C923.946 49.4786 922.867 48.8736 922.12 47.6637C921.373 46.4538 921 44.7054 921 42.4185C921 40.145 921.373 38.4032 922.12 37.1933C922.867 35.9834 923.946 35.3784 925.36 35.3784ZM922.42 42.4185C922.42 44.0406 922.567 45.3104 922.86 46.2278L927.3 37.3927C926.833 36.7678 926.186 36.4554 925.36 36.4554C924.44 36.4554 923.72 36.9473 923.2 37.9312C922.68 38.9018 922.42 40.3976 922.42 42.4185ZM925.36 48.3817C926.293 48.3817 927.02 47.8964 927.54 46.9258C928.06 45.9419 928.319 44.4395 928.319 42.4185C928.319 40.7034 928.153 39.3738 927.82 38.4298L923.38 47.3446C923.86 48.036 924.52 48.3817 925.36 48.3817Z" fill="url(#paint73_linear_122_130)"/>
<path d="M925.36 58.1712C926.786 58.1712 927.866 58.7762 928.599 59.9861C929.346 61.1827 929.719 62.9245 929.719 65.2113C929.719 67.4982 929.346 69.2466 928.599 70.4565C927.866 71.6664 926.786 72.2714 925.36 72.2714C923.946 72.2714 922.867 71.6664 922.12 70.4565C921.373 69.2466 921 67.4982 921 65.2113C921 62.9378 921.373 61.196 922.12 59.9861C922.867 58.7762 923.946 58.1712 925.36 58.1712ZM922.42 65.2113C922.42 66.8334 922.567 68.1032 922.86 69.0206L927.3 60.1855C926.833 59.5606 926.186 59.2482 925.36 59.2482C924.44 59.2482 923.72 59.7401 923.2 60.724C922.68 61.6946 922.42 63.1904 922.42 65.2113ZM925.36 71.1745C926.293 71.1745 927.02 70.6892 927.54 69.7186C928.06 68.7347 928.319 67.2323 928.319 65.2113C928.319 63.4962 928.153 62.1666 927.82 61.2226L923.38 70.1374C923.86 70.8288 924.52 71.1745 925.36 71.1745Z" fill="url(#paint74_linear_122_130)"/>
<path d="M926.56 93.8078H929.499V94.8648H921.88V93.8078H925.28V82.5994L922.04 84.5339L921.48 83.6365L925.48 81.1635H926.56V93.8078Z" fill="url(#paint75_linear_122_130)"/>
<path d="M925.36 103.757C926.786 103.757 927.866 104.362 928.599 105.572C929.346 106.768 929.719 108.51 929.719 110.797C929.719 113.084 929.346 114.832 928.599 116.042C927.866 117.252 926.786 117.857 925.36 117.857C923.946 117.857 922.867 117.252 922.12 116.042C921.373 114.832 921 113.084 921 110.797C921 108.523 921.373 106.782 922.12 105.572C922.867 104.362 923.946 103.757 925.36 103.757ZM922.42 110.797C922.42 112.419 922.567 113.689 922.86 114.606L927.3 105.771C926.833 105.146 926.186 104.834 925.36 104.834C924.44 104.834 923.72 105.326 923.2 106.31C922.68 107.28 922.42 108.776 922.42 110.797ZM925.36 116.76C926.293 116.76 927.02 116.275 927.54 115.304C928.06 114.32 928.319 112.818 928.319 110.797C928.319 109.082 928.153 107.752 927.82 106.808L923.38 115.723C923.86 116.414 924.52 116.76 925.36 116.76Z" fill="url(#paint76_linear_122_130)"/>
<path d="M926.56 139.393H929.499V140.45H921.88V139.393H925.28V128.185L922.04 130.12L921.48 129.222L925.48 126.749H926.56V139.393Z" fill="url(#paint77_linear_122_130)"/>
<path d="M926.56 162.186H929.499V163.243H921.88V162.186H925.28V150.978L922.04 152.912L921.48 152.015L925.48 149.542H926.56V162.186Z" fill="url(#paint78_linear_122_130)"/>
<path d="M963.7 2.63655H966.64V3.69356H959.02V2.63655H962.42V-8.57181L959.18 -6.63727L958.62 -7.53474L962.62 -10.0078H963.7V2.63655Z" fill="url(#paint79_linear_122_130)"/>
<path d="M962.5 12.5856C963.927 12.5856 965.006 13.1906 965.74 14.4005C966.486 15.5971 966.86 17.3389 966.86 19.6257C966.86 21.9126 966.486 23.661 965.74 24.8709C965.006 26.0808 963.927 26.6858 962.5 26.6858C961.087 26.6858 960.007 26.0808 959.26 24.8709C958.514 23.661 958.14 21.9126 958.14 19.6257C958.14 17.3522 958.514 15.6104 959.26 14.4005C960.007 13.1906 961.087 12.5856 962.5 12.5856ZM959.56 19.6257C959.56 21.2478 959.707 22.5176 960 23.435L964.44 14.5999C963.973 13.975 963.327 13.6626 962.5 13.6626C961.58 13.6626 960.86 14.1545 960.34 15.1384C959.82 16.109 959.56 17.6048 959.56 19.6257ZM962.5 25.5889C963.433 25.5889 964.16 25.1036 964.68 24.133C965.2 23.1491 965.46 21.6467 965.46 19.6257C965.46 17.9106 965.293 16.581 964.96 15.637L960.52 24.5518C961 25.2432 961.66 25.5889 962.5 25.5889Z" fill="url(#paint80_linear_122_130)"/>
<path d="M963.7 48.2221H966.64V49.2792H959.02V48.2221H962.42V37.0138L959.18 38.9483L958.62 38.0509L962.62 35.5778H963.7V48.2221Z" fill="url(#paint81_linear_122_130)"/>
<path d="M963.7 71.015H966.64V72.072H959.02V71.015H962.42V59.8066L959.18 61.7411L958.62 60.8437L962.62 58.3706H963.7V71.015Z" fill="url(#paint82_linear_122_130)"/>
<path d="M962.5 80.964C963.927 80.964 965.006 81.569 965.74 82.7789C966.486 83.9755 966.86 85.7173 966.86 88.0041C966.86 90.291 966.486 92.0394 965.74 93.2493C965.006 94.4593 963.927 95.0642 962.5 95.0642C961.087 95.0642 960.007 94.4593 959.26 93.2493C958.514 92.0394 958.14 90.291 958.14 88.0041C958.14 85.7306 958.514 83.9888 959.26 82.7789C960.007 81.569 961.087 80.964 962.5 80.964ZM959.56 88.0041C959.56 89.6262 959.707 90.896 960 91.8134L964.44 82.9783C963.973 82.3534 963.327 82.041 962.5 82.041C961.58 82.041 960.86 82.5329 960.34 83.5168C959.82 84.4874 959.56 85.9832 959.56 88.0041ZM962.5 93.9673C963.433 93.9673 964.16 93.482 964.68 92.5114C965.2 91.5275 965.46 90.0251 965.46 88.0041C965.46 86.289 965.293 84.9594 964.96 84.0154L960.52 92.9302C961 93.6216 961.66 93.9673 962.5 93.9673Z" fill="url(#paint83_linear_122_130)"/>
<path d="M963.7 116.601H966.64V117.658H959.02V116.601H962.42V105.392L959.18 107.327L958.62 106.429L962.62 103.956H963.7V116.601Z" fill="url(#paint84_linear_122_130)"/>
<path d="M963.7 139.393H966.64V140.45H959.02V139.393H962.42V128.185L959.18 130.12L958.62 129.222L962.62 126.749H963.7V139.393Z" fill="url(#paint85_linear_122_130)"/>
<path d="M962.5 149.342C963.927 149.342 965.006 149.947 965.74 151.157C966.486 152.354 966.86 154.096 966.86 156.383C966.86 158.669 966.486 160.418 965.74 161.628C965.006 162.838 963.927 163.443 962.5 163.443C961.087 163.443 960.007 162.838 959.26 161.628C958.514 160.418 958.14 158.669 958.14 156.383C958.14 154.109 958.514 152.367 959.26 151.157C960.007 149.947 961.087 149.342 962.5 149.342ZM959.56 156.383C959.56 158.005 959.707 159.274 960 160.192L964.44 151.357C963.973 150.732 963.327 150.419 962.5 150.419C961.58 150.419 960.86 150.911 960.34 151.895C959.82 152.866 959.56 154.362 959.56 156.383ZM962.5 162.346C963.433 162.346 964.16 161.86 964.68 160.89C965.2 159.906 965.46 158.404 965.46 156.383C965.46 154.667 965.293 153.338 964.96 152.394L960.52 161.309C961 162 961.66 162.346 962.5 162.346Z" fill="url(#paint86_linear_122_130)"/>
<path d="M963.7 184.979H966.64V186.036H959.02V184.979H962.42V173.771L959.18 175.705L958.62 174.808L962.62 172.335H963.7V184.979Z" fill="url(#paint87_linear_122_130)"/>
<path d="M962.5 194.928C963.927 194.928 965.006 195.533 965.74 196.743C966.486 197.94 966.86 199.681 966.86 201.968C966.86 204.255 966.486 206.003 965.74 207.213C965.006 208.423 963.927 209.028 962.5 209.028C961.087 209.028 960.007 208.423 959.26 207.213C958.514 206.003 958.14 204.255 958.14 201.968C958.14 199.695 958.514 197.953 959.26 196.743C960.007 195.533 961.087 194.928 962.5 194.928ZM959.56 201.968C959.56 203.59 959.707 204.86 960 205.777L964.44 196.942C963.973 196.317 963.327 196.005 962.5 196.005C961.58 196.005 960.86 196.497 960.34 197.481C959.82 198.451 959.56 199.947 959.56 201.968ZM962.5 207.931C963.433 207.931 964.16 207.446 964.68 206.475C965.2 205.492 965.46 203.989 965.46 201.968C965.46 200.253 965.293 198.923 964.96 197.979L960.52 206.894C961 207.586 961.66 207.931 962.5 207.931Z" fill="url(#paint88_linear_122_130)"/>
<path d="M999.64 -10.2072C1001.07 -10.2072 1002.15 -9.60224 1002.88 -8.39232C1003.63 -7.1957 1004 -5.45395 1004 -3.16707C1004 -0.880194 1003.63 0.868206 1002.88 2.07812C1002.15 3.28804 1001.07 3.893 999.64 3.893C998.227 3.893 997.147 3.28804 996.401 2.07812C995.654 0.868206 995.281 -0.880194 995.281 -3.16707C995.281 -5.44065 995.654 -7.1824 996.401 -8.39232C997.147 -9.60224 998.227 -10.2072 999.64 -10.2072ZM996.7 -3.16707C996.7 -1.54498 996.847 -0.275231 997.14 0.642179L1001.58 -8.19288C1001.11 -8.81779 1000.47 -9.13024 999.64 -9.13024C998.72 -9.13024 998 -8.63829 997.48 -7.6544C996.96 -6.68381 996.7 -5.18803 996.7 -3.16707ZM999.64 2.7961C1000.57 2.7961 1001.3 2.3108 1001.82 1.34021C1002.34 0.356319 1002.6 -1.14611 1002.6 -3.16707C1002.6 -4.88223 1002.43 -6.21181 1002.1 -7.15581L997.66 1.75902C998.14 2.4504 998.8 2.7961 999.64 2.7961Z" fill="url(#paint89_linear_122_130)"/>
<path d="M1000.84 25.4293H1003.78V26.4864H996.161V25.4293H999.56V14.221L996.321 16.1555L995.761 15.2581L999.76 12.785H1000.84V25.4293Z" fill="url(#paint90_linear_122_130)"/>
<path d="M1000.84 48.2221H1003.78V49.2792H996.161V48.2221H999.56V37.0138L996.321 38.9483L995.761 38.0509L999.76 35.5778H1000.84V48.2221Z" fill="url(#paint91_linear_122_130)"/>
<path d="M999.64 58.1712C1001.07 58.1712 1002.15 58.7762 1002.88 59.9861C1003.63 61.1827 1004 62.9245 1004 65.2113C1004 67.4982 1003.63 69.2466 1002.88 70.4565C1002.15 71.6664 1001.07 72.2714 999.64 72.2714C998.227 72.2714 997.147 71.6664 996.401 70.4565C995.654 69.2466 995.281 67.4982 995.281 65.2113C995.281 62.9378 995.654 61.196 996.401 59.9861C997.147 58.7762 998.227 58.1712 999.64 58.1712ZM996.7 65.2113C996.7 66.8334 996.847 68.1032 997.14 69.0206L1001.58 60.1855C1001.11 59.5606 1000.47 59.2482 999.64 59.2482C998.72 59.2482 998 59.7401 997.48 60.724C996.96 61.6946 996.7 63.1904 996.7 65.2113ZM999.64 71.1745C1000.57 71.1745 1001.3 70.6892 1001.82 69.7186C1002.34 68.7347 1002.6 67.2323 1002.6 65.2113C1002.6 63.4962 1002.43 62.1666 1002.1 61.2226L997.66 70.1374C998.14 70.8288 998.8 71.1745 999.64 71.1745Z" fill="url(#paint92_linear_122_130)"/>
<path d="M999.64 80.964C1001.07 80.964 1002.15 81.569 1002.88 82.7789C1003.63 83.9755 1004 85.7173 1004 88.0041C1004 90.291 1003.63 92.0394 1002.88 93.2493C1002.15 94.4593 1001.07 95.0642 999.64 95.0642C998.227 95.0642 997.147 94.4593 996.401 93.2493C995.654 92.0394 995.281 90.291 995.281 88.0041C995.281 85.7306 995.654 83.9888 996.401 82.7789C997.147 81.569 998.227 80.964 999.64 80.964ZM996.7 88.0041C996.7 89.6262 996.847 90.896 997.14 91.8134L1001.58 82.9783C1001.11 82.3534 1000.47 82.041 999.64 82.041C998.72 82.041 998 82.5329 997.48 83.5168C996.96 84.4874 996.7 85.9832 996.7 88.0041ZM999.64 93.9673C1000.57 93.9673 1001.3 93.482 1001.82 92.5114C1002.34 91.5275 1002.6 90.0251 1002.6 88.0041C1002.6 86.289 1002.43 84.9594 1002.1 84.0154L997.66 92.9302C998.14 93.6216 998.8 93.9673 999.64 93.9673Z" fill="url(#paint93_linear_122_130)"/>
</g>
</g>
<defs>
<filter id="filter0_f_122_130" x="-534.19" y="-719.19" width="2141.38" height="1500.38" filterUnits="userSpaceOnUse" color-interpolation-filters="sRGB">
<feFlood flood-opacity="0" result="BackgroundImageFix"/>
<feBlend mode="normal" in="SourceGraphic" in2="BackgroundImageFix" result="shape"/>
<feGaussianBlur stdDeviation="200.095" result="effect1_foregroundBlur_122_130"/>
</filter>
<linearGradient id="paint0_linear_122_130" x1="76.5" y1="267" x2="76.5" y2="578.381" gradientUnits="userSpaceOnUse">
<stop stop-color="#F7DD43"/>
<stop offset="1" stop-color="#F7DD43" stop-opacity="0"/>
</linearGradient>
<linearGradient id="paint1_linear_122_130" x1="76.5" y1="267" x2="76.5" y2="578.381" gradientUnits="userSpaceOnUse">
<stop stop-color="#F7DD43"/>
<stop offset="1" stop-color="#F7DD43" stop-opacity="0"/>
</linearGradient>
<linearGradient id="paint2_linear_122_130" x1="76.5" y1="267" x2="76.5" y2="578.381" gradientUnits="userSpaceOnUse">
<stop stop-color="#F7DD43"/>
<stop offset="1" stop-color="#F7DD43" stop-opacity="0"/>
</linearGradient>
<linearGradient id="paint3_linear_122_130" x1="76.5" y1="267" x2="76.5" y2="578.381" gradientUnits="userSpaceOnUse">
<stop stop-color="#F7DD43"/>
<stop offset="1" stop-color="#F7DD43" stop-opacity="0"/>
</linearGradient>
<linearGradient id="paint4_linear_122_130" x1="76.5" y1="267" x2="76.5" y2="578.381" gradientUnits="userSpaceOnUse">
<stop stop-color="#F7DD43"/>
<stop offset="1" stop-color="#F7DD43" stop-opacity="0"/>
</linearGradient>
<linearGradient id="paint5_linear_122_130" x1="76.5" y1="267" x2="76.5" y2="578.381" gradientUnits="userSpaceOnUse">
<stop stop-color="#F7DD43"/>
<stop offset="1" stop-color="#F7DD43" stop-opacity="0"/>
</linearGradient>
<linearGradient id="paint6_linear_122_130" x1="76.5" y1="267" x2="76.5" y2="578.381" gradientUnits="userSpaceOnUse">
<stop stop-color="#F7DD43"/>
<stop offset="1" stop-color="#F7DD43" stop-opacity="0"/>
</linearGradient>
<linearGradient id="paint7_linear_122_130" x1="76.5" y1="267" x2="76.5" y2="578.381" gradientUnits="userSpaceOnUse">
<stop stop-color="#F7DD43"/>
<stop offset="1" stop-color="#F7DD43" stop-opacity="0"/>
</linearGradient>
<linearGradient id="paint8_linear_122_130" x1="76.5" y1="267" x2="76.5" y2="578.381" gradientUnits="userSpaceOnUse">
<stop stop-color="#F7DD43"/>
<stop offset="1" stop-color="#F7DD43" stop-opacity="0"/>
</linearGradient>
<linearGradient id="paint9_linear_122_130" x1="76.5" y1="267" x2="76.5" y2="578.381" gradientUnits="userSpaceOnUse">
<stop stop-color="#F7DD43"/>
<stop offset="1" stop-color="#F7DD43" stop-opacity="0"/>
</linearGradient>
<linearGradient id="paint10_linear_122_130" x1="76.5" y1="267" x2="76.5" y2="578.381" gradientUnits="userSpaceOnUse">
<stop stop-color="#F7DD43"/>
<stop offset="1" stop-color="#F7DD43" stop-opacity="0"/>
</linearGradient>
<linearGradient id="paint11_linear_122_130" x1="76.5" y1="267" x2="76.5" y2="578.381" gradientUnits="userSpaceOnUse">
<stop stop-color="#F7DD43"/>
<stop offset="1" stop-color="#F7DD43" stop-opacity="0"/>
</linearGradient>
<linearGradient id="paint12_linear_122_130" x1="76.5" y1="267" x2="76.5" y2="578.381" gradientUnits="userSpaceOnUse">
<stop stop-color="#F7DD43"/>
<stop offset="1" stop-color="#F7DD43" stop-opacity="0"/>
</linearGradient>
<linearGradient id="paint13_linear_122_130" x1="76.5" y1="267" x2="76.5" y2="578.381" gradientUnits="userSpaceOnUse">
<stop stop-color="#F7DD43"/>
<stop offset="1" stop-color="#F7DD43" stop-opacity="0"/>
</linearGradient>
<linearGradient id="paint14_linear_122_130" x1="76.5" y1="267" x2="76.5" y2="578.381" gradientUnits="userSpaceOnUse">
<stop stop-color="#F7DD43"/>
<stop offset="1" stop-color="#F7DD43" stop-opacity="0"/>
</linearGradient>
<linearGradient id="paint15_linear_122_130" x1="76.5" y1="267" x2="76.5" y2="578.381" gradientUnits="userSpaceOnUse">
<stop stop-color="#F7DD43"/>
<stop offset="1" stop-color="#F7DD43" stop-opacity="0"/>
</linearGradient>
<linearGradient id="paint16_linear_122_130" x1="76.5" y1="267" x2="76.5" y2="578.381" gradientUnits="userSpaceOnUse">
<stop stop-color="#F7DD43"/>
<stop offset="1" stop-color="#F7DD43" stop-opacity="0"/>
</linearGradient>
<linearGradient id="paint17_linear_122_130" x1="76.5" y1="267" x2="76.5" y2="578.381" gradientUnits="userSpaceOnUse">
<stop stop-color="#F7DD43"/>
<stop offset="1" stop-color="#F7DD43" stop-opacity="0"/>
</linearGradient>
<linearGradient id="paint18_linear_122_130" x1="76.5" y1="267" x2="76.5" y2="578.381" gradientUnits="userSpaceOnUse">
<stop stop-color="#F7DD43"/>
<stop offset="1" stop-color="#F7DD43" stop-opacity="0"/>
</linearGradient>
<linearGradient id="paint19_linear_122_130" x1="76.5" y1="267" x2="76.5" y2="578.381" gradientUnits="userSpaceOnUse">
<stop stop-color="#F7DD43"/>
<stop offset="1" stop-color="#F7DD43" stop-opacity="0"/>
</linearGradient>
<linearGradient id="paint20_linear_122_130" x1="76.5" y1="267" x2="76.5" y2="578.381" gradientUnits="userSpaceOnUse">
<stop stop-color="#F7DD43"/>
<stop offset="1" stop-color="#F7DD43" stop-opacity="0"/>
</linearGradient>
<linearGradient id="paint21_linear_122_130" x1="76.5" y1="267" x2="76.5" y2="578.381" gradientUnits="userSpaceOnUse">
<stop stop-color="#F7DD43"/>
<stop offset="1" stop-color="#F7DD43" stop-opacity="0"/>
</linearGradient>
<linearGradient id="paint22_linear_122_130" x1="76.5" y1="267" x2="76.5" y2="578.381" gradientUnits="userSpaceOnUse">
<stop stop-color="#F7DD43"/>
<stop offset="1" stop-color="#F7DD43" stop-opacity="0"/>
</linearGradient>
<linearGradient id="paint23_linear_122_130" x1="76.5" y1="267" x2="76.5" y2="578.381" gradientUnits="userSpaceOnUse">
<stop stop-color="#F7DD43"/>
<stop offset="1" stop-color="#F7DD43" stop-opacity="0"/>
</linearGradient>
<linearGradient id="paint24_linear_122_130" x1="76.5" y1="267" x2="76.5" y2="578.381" gradientUnits="userSpaceOnUse">
<stop stop-color="#F7DD43"/>
<stop offset="1" stop-color="#F7DD43" stop-opacity="0"/>
</linearGradient>
<linearGradient id="paint25_linear_122_130" x1="76.5" y1="267" x2="76.5" y2="578.381" gradientUnits="userSpaceOnUse">
<stop stop-color="#F7DD43"/>
<stop offset="1" stop-color="#F7DD43" stop-opacity="0"/>
</linearGradient>
<linearGradient id="paint26_linear_122_130" x1="76.5" y1="267" x2="76.5" y2="578.381" gradientUnits="userSpaceOnUse">
<stop stop-color="#F7DD43"/>
<stop offset="1" stop-color="#F7DD43" stop-opacity="0"/>
</linearGradient>
<linearGradient id="paint27_linear_122_130" x1="76.5" y1="267" x2="76.5" y2="578.381" gradientUnits="userSpaceOnUse">
<stop stop-color="#F7DD43"/>
<stop offset="1" stop-color="#F7DD43" stop-opacity="0"/>
</linearGradient>
<linearGradient id="paint28_linear_122_130" x1="76.5" y1="267" x2="76.5" y2="578.381" gradientUnits="userSpaceOnUse">
<stop stop-color="#F7DD43"/>
<stop offset="1" stop-color="#F7DD43" stop-opacity="0"/>
</linearGradient>
<linearGradient id="paint29_linear_122_130" x1="76.5" y1="267" x2="76.5" y2="578.381" gradientUnits="userSpaceOnUse">
<stop stop-color="#F7DD43"/>
<stop offset="1" stop-color="#F7DD43" stop-opacity="0"/>
</linearGradient>
<linearGradient id="paint30_linear_122_130" x1="76.5" y1="267" x2="76.5" y2="578.381" gradientUnits="userSpaceOnUse">
<stop stop-color="#F7DD43"/>
<stop offset="1" stop-color="#F7DD43" stop-opacity="0"/>
</linearGradient>
<linearGradient id="paint31_linear_122_130" x1="76.5" y1="267" x2="76.5" y2="578.381" gradientUnits="userSpaceOnUse">
<stop stop-color="#F7DD43"/>
<stop offset="1" stop-color="#F7DD43" stop-opacity="0"/>
</linearGradient>
<linearGradient id="paint32_linear_122_130" x1="76.5" y1="267" x2="76.5" y2="578.381" gradientUnits="userSpaceOnUse">
<stop stop-color="#F7DD43"/>
<stop offset="1" stop-color="#F7DD43" stop-opacity="0"/>
</linearGradient>
<linearGradient id="paint33_linear_122_130" x1="76.5" y1="267" x2="76.5" y2="578.381" gradientUnits="userSpaceOnUse">
<stop stop-color="#F7DD43"/>
<stop offset="1" stop-color="#F7DD43" stop-opacity="0"/>
</linearGradient>
<linearGradient id="paint34_linear_122_130" x1="76.5" y1="267" x2="76.5" y2="578.381" gradientUnits="userSpaceOnUse">
<stop stop-color="#F7DD43"/>
<stop offset="1" stop-color="#F7DD43" stop-opacity="0"/>
</linearGradient>
<linearGradient id="paint35_linear_122_130" x1="76.5" y1="267" x2="76.5" y2="578.381" gradientUnits="userSpaceOnUse">
<stop stop-color="#F7DD43"/>
<stop offset="1" stop-color="#F7DD43" stop-opacity="0"/>
</linearGradient>
<linearGradient id="paint36_linear_122_130" x1="76.5" y1="267" x2="76.5" y2="578.381" gradientUnits="userSpaceOnUse">
<stop stop-color="#F7DD43"/>
<stop offset="1" stop-color="#F7DD43" stop-opacity="0"/>
</linearGradient>
<linearGradient id="paint37_linear_122_130" x1="76.5" y1="267" x2="76.5" y2="578.381" gradientUnits="userSpaceOnUse">
<stop stop-color="#F7DD43"/>
<stop offset="1" stop-color="#F7DD43" stop-opacity="0"/>
</linearGradient>
<linearGradient id="paint38_linear_122_130" x1="76.5" y1="267" x2="76.5" y2="578.381" gradientUnits="userSpaceOnUse">
<stop stop-color="#F7DD43"/>
<stop offset="1" stop-color="#F7DD43" stop-opacity="0"/>
</linearGradient>
<linearGradient id="paint39_linear_122_130" x1="76.5" y1="267" x2="76.5" y2="578.381" gradientUnits="userSpaceOnUse">
<stop stop-color="#F7DD43"/>
<stop offset="1" stop-color="#F7DD43" stop-opacity="0"/>
</linearGradient>
<linearGradient id="paint40_linear_122_130" x1="76.5" y1="267" x2="76.5" y2="578.381" gradientUnits="userSpaceOnUse">
<stop stop-color="#F7DD43"/>
<stop offset="1" stop-color="#F7DD43" stop-opacity="0"/>
</linearGradient>
<linearGradient id="paint41_linear_122_130" x1="76.5" y1="267" x2="76.5" y2="578.381" gradientUnits="userSpaceOnUse">
<stop stop-color="#F7DD43"/>
<stop offset="1" stop-color="#F7DD43" stop-opacity="0"/>
</linearGradient>
<linearGradient id="paint42_linear_122_130" x1="76.5" y1="267" x2="76.5" y2="578.381" gradientUnits="userSpaceOnUse">
<stop stop-color="#F7DD43"/>
<stop offset="1" stop-color="#F7DD43" stop-opacity="0"/>
</linearGradient>
<linearGradient id="paint43_linear_122_130" x1="76.5" y1="267" x2="76.5" y2="578.381" gradientUnits="userSpaceOnUse">
<stop stop-color="#F7DD43"/>
<stop offset="1" stop-color="#F7DD43" stop-opacity="0"/>
</linearGradient>
<linearGradient id="paint44_linear_122_130" x1="76.5" y1="267" x2="76.5" y2="578.381" gradientUnits="userSpaceOnUse">
<stop stop-color="#F7DD43"/>
<stop offset="1" stop-color="#F7DD43" stop-opacity="0"/>
</linearGradient>
<linearGradient id="paint45_linear_122_130" x1="76.5" y1="267" x2="76.5" y2="578.381" gradientUnits="userSpaceOnUse">
<stop stop-color="#F7DD43"/>
<stop offset="1" stop-color="#F7DD43" stop-opacity="0"/>
</linearGradient>
<linearGradient id="paint46_linear_122_130" x1="76.5" y1="267" x2="76.5" y2="578.381" gradientUnits="userSpaceOnUse">
<stop stop-color="#F7DD43"/>
<stop offset="1" stop-color="#F7DD43" stop-opacity="0"/>
</linearGradient>
<linearGradient id="paint47_linear_122_130" x1="962.5" y1="-33" x2="962.5" y2="265.818" gradientUnits="userSpaceOnUse">
<stop stop-color="#F7DD43"/>
<stop offset="1" stop-color="#F7DD43" stop-opacity="0"/>
</linearGradient>
<linearGradient id="paint48_linear_122_130" x1="962.5" y1="-33" x2="962.5" y2="265.818" gradientUnits="userSpaceOnUse">
<stop stop-color="#F7DD43"/>
<stop offset="1" stop-color="#F7DD43" stop-opacity="0"/>
</linearGradient>
<linearGradient id="paint49_linear_122_130" x1="962.5" y1="-33" x2="962.5" y2="265.818" gradientUnits="userSpaceOnUse">
<stop stop-color="#F7DD43"/>
<stop offset="1" stop-color="#F7DD43" stop-opacity="0"/>
</linearGradient>
<linearGradient id="paint50_linear_122_130" x1="962.5" y1="-33" x2="962.5" y2="265.818" gradientUnits="userSpaceOnUse">
<stop stop-color="#F7DD43"/>
<stop offset="1" stop-color="#F7DD43" stop-opacity="0"/>
</linearGradient>
<linearGradient id="paint51_linear_122_130" x1="962.5" y1="-33" x2="962.5" y2="265.818" gradientUnits="userSpaceOnUse">
<stop stop-color="#F7DD43"/>
<stop offset="1" stop-color="#F7DD43" stop-opacity="0"/>
</linearGradient>
<linearGradient id="paint52_linear_122_130" x1="962.5" y1="-33" x2="962.5" y2="265.818" gradientUnits="userSpaceOnUse">
<stop stop-color="#F7DD43"/>
<stop offset="1" stop-color="#F7DD43" stop-opacity="0"/>
</linearGradient>
<linearGradient id="paint53_linear_122_130" x1="962.5" y1="-33" x2="962.5" y2="265.818" gradientUnits="userSpaceOnUse">
<stop stop-color="#F7DD43"/>
<stop offset="1" stop-color="#F7DD43" stop-opacity="0"/>
</linearGradient>
<linearGradient id="paint54_linear_122_130" x1="962.5" y1="-33" x2="962.5" y2="265.818" gradientUnits="userSpaceOnUse">
<stop stop-color="#F7DD43"/>
<stop offset="1" stop-color="#F7DD43" stop-opacity="0"/>
</linearGradient>
<linearGradient id="paint55_linear_122_130" x1="962.5" y1="-33" x2="962.5" y2="265.818" gradientUnits="userSpaceOnUse">
<stop stop-color="#F7DD43"/>
<stop offset="1" stop-color="#F7DD43" stop-opacity="0"/>
</linearGradient>
<linearGradient id="paint56_linear_122_130" x1="962.5" y1="-33" x2="962.5" y2="265.818" gradientUnits="userSpaceOnUse">
<stop stop-color="#F7DD43"/>
<stop offset="1" stop-color="#F7DD43" stop-opacity="0"/>
</linearGradient>
<linearGradient id="paint57_linear_122_130" x1="962.5" y1="-33" x2="962.5" y2="265.818" gradientUnits="userSpaceOnUse">
<stop stop-color="#F7DD43"/>
<stop offset="1" stop-color="#F7DD43" stop-opacity="0"/>
</linearGradient>
<linearGradient id="paint58_linear_122_130" x1="962.5" y1="-33" x2="962.5" y2="265.818" gradientUnits="userSpaceOnUse">
<stop stop-color="#F7DD43"/>
<stop offset="1" stop-color="#F7DD43" stop-opacity="0"/>
</linearGradient>
<linearGradient id="paint59_linear_122_130" x1="962.5" y1="-33" x2="962.5" y2="265.818" gradientUnits="userSpaceOnUse">
<stop stop-color="#F7DD43"/>
<stop offset="1" stop-color="#F7DD43" stop-opacity="0"/>
</linearGradient>
<linearGradient id="paint60_linear_122_130" x1="962.5" y1="-33" x2="962.5" y2="265.818" gradientUnits="userSpaceOnUse">
<stop stop-color="#F7DD43"/>
<stop offset="1" stop-color="#F7DD43" stop-opacity="0"/>
</linearGradient>
<linearGradient id="paint61_linear_122_130" x1="962.5" y1="-33" x2="962.5" y2="265.818" gradientUnits="userSpaceOnUse">
<stop stop-color="#F7DD43"/>
<stop offset="1" stop-color="#F7DD43" stop-opacity="0"/>
</linearGradient>
<linearGradient id="paint62_linear_122_130" x1="962.5" y1="-33" x2="962.5" y2="265.818" gradientUnits="userSpaceOnUse">
<stop stop-color="#F7DD43"/>
<stop offset="1" stop-color="#F7DD43" stop-opacity="0"/>
</linearGradient>
<linearGradient id="paint63_linear_122_130" x1="962.5" y1="-33" x2="962.5" y2="265.818" gradientUnits="userSpaceOnUse">
<stop stop-color="#F7DD43"/>
<stop offset="1" stop-color="#F7DD43" stop-opacity="0"/>
</linearGradient>
<linearGradient id="paint64_linear_122_130" x1="962.5" y1="-33" x2="962.5" y2="265.818" gradientUnits="userSpaceOnUse">
<stop stop-color="#F7DD43"/>
<stop offset="1" stop-color="#F7DD43" stop-opacity="0"/>
</linearGradient>
<linearGradient id="paint65_linear_122_130" x1="962.5" y1="-33" x2="962.5" y2="265.818" gradientUnits="userSpaceOnUse">
<stop stop-color="#F7DD43"/>
<stop offset="1" stop-color="#F7DD43" stop-opacity="0"/>
</linearGradient>
<linearGradient id="paint66_linear_122_130" x1="962.5" y1="-33" x2="962.5" y2="265.818" gradientUnits="userSpaceOnUse">
<stop stop-color="#F7DD43"/>
<stop offset="1" stop-color="#F7DD43" stop-opacity="0"/>
</linearGradient>
<linearGradient id="paint67_linear_122_130" x1="962.5" y1="-33" x2="962.5" y2="265.818" gradientUnits="userSpaceOnUse">
<stop stop-color="#F7DD43"/>
<stop offset="1" stop-color="#F7DD43" stop-opacity="0"/>
</linearGradient>
<linearGradient id="paint68_linear_122_130" x1="962.5" y1="-33" x2="962.5" y2="265.818" gradientUnits="userSpaceOnUse">
<stop stop-color="#F7DD43"/>
<stop offset="1" stop-color="#F7DD43" stop-opacity="0"/>
</linearGradient>
<linearGradient id="paint69_linear_122_130" x1="962.5" y1="-33" x2="962.5" y2="265.818" gradientUnits="userSpaceOnUse">
<stop stop-color="#F7DD43"/>
<stop offset="1" stop-color="#F7DD43" stop-opacity="0"/>
</linearGradient>
<linearGradient id="paint70_linear_122_130" x1="962.5" y1="-33" x2="962.5" y2="265.818" gradientUnits="userSpaceOnUse">
<stop stop-color="#F7DD43"/>
<stop offset="1" stop-color="#F7DD43" stop-opacity="0"/>
</linearGradient>
<linearGradient id="paint71_linear_122_130" x1="962.5" y1="-33" x2="962.5" y2="265.818" gradientUnits="userSpaceOnUse">
<stop stop-color="#F7DD43"/>
<stop offset="1" stop-color="#F7DD43" stop-opacity="0"/>
</linearGradient>
<linearGradient id="paint72_linear_122_130" x1="962.5" y1="-33" x2="962.5" y2="265.818" gradientUnits="userSpaceOnUse">
<stop stop-color="#F7DD43"/>
<stop offset="1" stop-color="#F7DD43" stop-opacity="0"/>
</linearGradient>
<linearGradient id="paint73_linear_122_130" x1="962.5" y1="-33" x2="962.5" y2="265.818" gradientUnits="userSpaceOnUse">
<stop stop-color="#F7DD43"/>
<stop offset="1" stop-color="#F7DD43" stop-opacity="0"/>
</linearGradient>
<linearGradient id="paint74_linear_122_130" x1="962.5" y1="-33" x2="962.5" y2="265.818" gradientUnits="userSpaceOnUse">
<stop stop-color="#F7DD43"/>
<stop offset="1" stop-color="#F7DD43" stop-opacity="0"/>
</linearGradient>
<linearGradient id="paint75_linear_122_130" x1="962.5" y1="-33" x2="962.5" y2="265.818" gradientUnits="userSpaceOnUse">
<stop stop-color="#F7DD43"/>
<stop offset="1" stop-color="#F7DD43" stop-opacity="0"/>
</linearGradient>
<linearGradient id="paint76_linear_122_130" x1="962.5" y1="-33" x2="962.5" y2="265.818" gradientUnits="userSpaceOnUse">
<stop stop-color="#F7DD43"/>
<stop offset="1" stop-color="#F7DD43" stop-opacity="0"/>
</linearGradient>
<linearGradient id="paint77_linear_122_130" x1="962.5" y1="-33" x2="962.5" y2="265.818" gradientUnits="userSpaceOnUse">
<stop stop-color="#F7DD43"/>
<stop offset="1" stop-color="#F7DD43" stop-opacity="0"/>
</linearGradient>
<linearGradient id="paint78_linear_122_130" x1="962.5" y1="-33" x2="962.5" y2="265.818" gradientUnits="userSpaceOnUse">
<stop stop-color="#F7DD43"/>
<stop offset="1" stop-color="#F7DD43" stop-opacity="0"/>
</linearGradient>
<linearGradient id="paint79_linear_122_130" x1="962.5" y1="-33" x2="962.5" y2="265.818" gradientUnits="userSpaceOnUse">
<stop stop-color="#F7DD43"/>
<stop offset="1" stop-color="#F7DD43" stop-opacity="0"/>
</linearGradient>
<linearGradient id="paint80_linear_122_130" x1="962.5" y1="-33" x2="962.5" y2="265.818" gradientUnits="userSpaceOnUse">
<stop stop-color="#F7DD43"/>
<stop offset="1" stop-color="#F7DD43" stop-opacity="0"/>
</linearGradient>
<linearGradient id="paint81_linear_122_130" x1="962.5" y1="-33" x2="962.5" y2="265.818" gradientUnits="userSpaceOnUse">
<stop stop-color="#F7DD43"/>
<stop offset="1" stop-color="#F7DD43" stop-opacity="0"/>
</linearGradient>
<linearGradient id="paint82_linear_122_130" x1="962.5" y1="-33" x2="962.5" y2="265.818" gradientUnits="userSpaceOnUse">
<stop stop-color="#F7DD43"/>
<stop offset="1" stop-color="#F7DD43" stop-opacity="0"/>
</linearGradient>
<linearGradient id="paint83_linear_122_130" x1="962.5" y1="-33" x2="962.5" y2="265.818" gradientUnits="userSpaceOnUse">
<stop stop-color="#F7DD43"/>
<stop offset="1" stop-color="#F7DD43" stop-opacity="0"/>
</linearGradient>
<linearGradient id="paint84_linear_122_130" x1="962.5" y1="-33" x2="962.5" y2="265.818" gradientUnits="userSpaceOnUse">
<stop stop-color="#F7DD43"/>
<stop offset="1" stop-color="#F7DD43" stop-opacity="0"/>
</linearGradient>
<linearGradient id="paint85_linear_122_130" x1="962.5" y1="-33" x2="962.5" y2="265.818" gradientUnits="userSpaceOnUse">
<stop stop-color="#F7DD43"/>
<stop offset="1" stop-color="#F7DD43" stop-opacity="0"/>
</linearGradient>
<linearGradient id="paint86_linear_122_130" x1="962.5" y1="-33" x2="962.5" y2="265.818" gradientUnits="userSpaceOnUse">
<stop stop-color="#F7DD43"/>
<stop offset="1" stop-color="#F7DD43" stop-opacity="0"/>
</linearGradient>
<linearGradient id="paint87_linear_122_130" x1="962.5" y1="-33" x2="962.5" y2="265.818" gradientUnits="userSpaceOnUse">
<stop stop-color="#F7DD43"/>
<stop offset="1" stop-color="#F7DD43" stop-opacity="0"/>
</linearGradient>
<linearGradient id="paint88_linear_122_130" x1="962.5" y1="-33" x2="962.5" y2="265.818" gradientUnits="userSpaceOnUse">
<stop stop-color="#F7DD43"/>
<stop offset="1" stop-color="#F7DD43" stop-opacity="0"/>
</linearGradient>
<linearGradient id="paint89_linear_122_130" x1="962.5" y1="-33" x2="962.5" y2="265.818" gradientUnits="userSpaceOnUse">
<stop stop-color="#F7DD43"/>
<stop offset="1" stop-color="#F7DD43" stop-opacity="0"/>
</linearGradient>
<linearGradient id="paint90_linear_122_130" x1="962.5" y1="-33" x2="962.5" y2="265.818" gradientUnits="userSpaceOnUse">
<stop stop-color="#F7DD43"/>
<stop offset="1" stop-color="#F7DD43" stop-opacity="0"/>
</linearGradient>
<linearGradient id="paint91_linear_122_130" x1="962.5" y1="-33" x2="962.5" y2="265.818" gradientUnits="userSpaceOnUse">
<stop stop-color="#F7DD43"/>
<stop offset="1" stop-color="#F7DD43" stop-opacity="0"/>
</linearGradient>
<linearGradient id="paint92_linear_122_130" x1="962.5" y1="-33" x2="962.5" y2="265.818" gradientUnits="userSpaceOnUse">
<stop stop-color="#F7DD43"/>
<stop offset="1" stop-color="#F7DD43" stop-opacity="0"/>
</linearGradient>
<linearGradient id="paint93_linear_122_130" x1="962.5" y1="-33" x2="962.5" y2="265.818" gradientUnits="userSpaceOnUse">
<stop stop-color="#F7DD43"/>
<stop offset="1" stop-color="#F7DD43" stop-opacity="0"/>
</linearGradient>
<clipPath id="clip0_122_130">
<rect width="1024" height="753" fill="white"/>
</clipPath>
</defs>
</svg>
